<svg width="34" height="34" xmlns="http://www.w3.org/2000/svg" xmlns:xlink="http://www.w3.org/1999/xlink" xml:space="preserve" overflow="hidden"><g transform="translate(-562 -247)"><path d="M590.688 273.562 590.688 253.375 583.25 253.375 583.25 258.333 577.583 258.333 577.583 254.083 571.562 254.083 571.562 251.958 567.312 251.958 567.312 273.562 566.958 273.562 566.958 276.042 591.042 276.042 591.042 273.562ZM583.958 254.083 589.979 254.083 589.979 256.562 583.958 256.562ZM583.958 258.333 583.958 257.271 589.979 257.271 589.979 269.312 583.958 269.312ZM589.979 270.021 589.979 273.562 583.958 273.562 583.958 270.021ZM583.25 259.042 583.25 273.562 577.583 273.562 577.583 259.042ZM576.875 254.792 576.875 273.562 571.562 273.562 571.562 254.792ZM568.021 252.667 570.854 252.667 570.854 273.562 568.021 273.562ZM590.333 275.333 567.667 275.333 567.667 274.271 590.333 274.271Z"/><path d="M575.458 256.208 572.979 256.208 572.979 258.688 575.458 258.688ZM574.75 257.979 573.688 257.979 573.688 256.917 574.75 256.917Z"/><path d="M581.125 261.875C581.125 262.266 580.808 262.583 580.417 262.583 580.025 262.583 579.708 262.266 579.708 261.875 579.708 261.484 580.025 261.167 580.417 261.167 580.808 261.167 581.125 261.484 581.125 261.875Z"/><path d="M581.125 270.021C581.125 270.412 580.808 270.729 580.417 270.729 580.025 270.729 579.708 270.412 579.708 270.021 579.708 269.63 580.025 269.312 580.417 269.312 580.808 269.312 581.125 269.63 581.125 270.021Z"/></g></svg>