<svg width="34" height="34" xmlns="http://www.w3.org/2000/svg" xmlns:xlink="http://www.w3.org/1999/xlink" xml:space="preserve" overflow="hidden"><g transform="translate(-690 -247)"><path d="M698.5 261.168C700.26 261.168 701.688 259.741 701.688 257.981 701.688 256.221 700.26 254.793 698.5 254.793 696.74 254.793 695.312 256.221 695.312 257.981 695.312 259.741 696.74 261.168 698.5 261.168ZM698.5 255.5C699.869 255.5 700.979 256.61 700.979 257.979 700.979 259.348 699.869 260.458 698.5 260.458 697.131 260.458 696.021 259.348 696.021 257.979 696.023 256.611 697.132 255.502 698.5 255.5Z" stroke="#434343" stroke-width="0.871795"/><path d="M715.5 261.168C717.26 261.168 718.688 259.741 718.688 257.981 718.688 256.221 717.26 254.793 715.5 254.793 713.74 254.793 712.312 256.221 712.312 257.981 712.312 259.741 713.74 261.168 715.5 261.168ZM715.5 255.5C716.869 255.5 717.979 256.61 717.979 257.979 717.979 259.348 716.869 260.458 715.5 260.458 714.131 260.458 713.021 259.348 713.021 257.979 713.023 256.611 714.132 255.502 715.5 255.5Z" stroke="#434343" stroke-width="0.871795"/><path d="M721.131 263.819C720.229 263.115 719.184 262.616 718.069 262.356 717.234 262.107 716.371 261.968 715.5 261.942 714.63 261.943 713.766 262.082 712.939 262.354 712.351 262.506 711.782 262.723 711.243 263.001 711.234 263.292 711.195 263.581 711.126 263.865 711.756 263.498 712.433 263.219 713.137 263.034 713.9 262.783 714.697 262.654 715.5 262.651 716.31 262.677 717.113 262.808 717.888 263.04 718.909 263.275 719.865 263.73 720.691 264.374L720.721 264.396C721.012 264.606 721.18 264.948 721.167 265.307L721.167 267.963 721.875 267.963 721.875 265.307C721.888 264.719 721.61 264.162 721.131 263.819Z" stroke="#434343" stroke-width="0.871795"/><path d="M702.859 263.81C702.794 263.53 702.759 263.244 702.753 262.957 702.212 262.702 701.648 262.5 701.068 262.355 700.234 262.106 699.37 261.967 698.5 261.942 697.63 261.943 696.766 262.082 695.939 262.354 694.831 262.656 693.786 263.157 692.855 263.831 692.397 264.183 692.128 264.729 692.128 265.307L692.128 267.963 692.836 267.963 692.836 265.307C692.837 264.95 693.003 264.612 693.285 264.394 694.147 263.773 695.114 263.312 696.139 263.034 696.901 262.783 697.698 262.654 698.5 262.651 699.31 262.677 700.113 262.808 700.888 263.04 701.576 263.209 702.239 263.468 702.859 263.81Z" stroke="#434343" stroke-width="0.871795"/><path d="M712.631 268.71C711.729 268.006 710.684 267.507 709.569 267.247 708.734 266.998 707.871 266.859 707 266.833 706.13 266.834 705.266 266.973 704.44 267.245 703.331 267.547 702.286 268.047 701.356 268.722 700.896 269.074 700.626 269.619 700.625 270.198L700.625 272.854 701.333 272.854 701.333 270.198C701.334 269.84 701.5 269.503 701.783 269.285 702.644 268.664 703.611 268.203 704.636 267.925 705.399 267.674 706.197 267.545 707 267.542 707.81 267.568 708.613 267.699 709.389 267.931 710.409 268.165 711.365 268.621 712.191 269.264L712.221 269.287C712.513 269.497 712.68 269.839 712.667 270.198L712.667 272.854 713.375 272.854 713.375 270.198C713.388 269.61 713.109 269.053 712.631 268.71Z" stroke="#434343" stroke-width="0.871795"/><path d="M707 266.059C708.76 266.059 710.188 264.632 710.188 262.872 710.188 261.112 708.76 259.684 707 259.684 705.24 259.684 703.812 261.112 703.812 262.872 703.812 264.632 705.24 266.059 707 266.059ZM707 260.393C708.369 260.393 709.479 261.503 709.479 262.872 709.479 264.241 708.369 265.351 707 265.351 705.631 265.351 704.521 264.241 704.521 262.872 704.522 261.503 705.631 260.393 707 260.391Z" stroke="#434343" stroke-width="0.871795"/></g></svg>