<svg width="39" height="39" xmlns="http://www.w3.org/2000/svg" xmlns:xlink="http://www.w3.org/1999/xlink" xml:space="preserve" overflow="hidden"><g transform="translate(-669 -490)"><path d="M703.125 499.75 695.23 499.75 692.792 495.688 684.208 495.688 681.77 499.75 673.875 499.75C672.754 499.751 671.845 500.66 671.844 501.781L671.844 521.281C671.845 522.403 672.754 523.311 673.875 523.312L703.125 523.312C704.246 523.311 705.155 522.403 705.156 521.281L705.156 501.781C705.155 500.66 704.246 499.751 703.125 499.75ZM684.667 496.5 692.333 496.5 694.283 499.75 682.717 499.75ZM703.125 500.562C703.798 500.562 704.344 501.108 704.344 501.781L704.344 521.281C704.344 521.954 703.798 522.5 703.125 522.5L673.875 522.5C673.202 522.5 672.656 521.954 672.656 521.281L672.656 501.781C672.656 501.108 673.202 500.562 673.875 500.562Z"/><path d="M675.094 506.656 680.375 506.656 680.375 503 675.094 503ZM675.906 503.812 679.562 503.812 679.562 505.844 675.906 505.844Z"/><path d="M688.5 505.031C684.461 505.031 681.188 508.305 681.188 512.344 681.188 516.382 684.461 519.656 688.5 519.656 692.539 519.656 695.812 516.382 695.812 512.344 695.808 508.307 692.537 505.036 688.5 505.031ZM688.5 518.844C684.91 518.844 682 515.934 682 512.344 682 508.754 684.91 505.844 688.5 505.844 692.09 505.844 695 508.754 695 512.344 694.996 515.932 692.088 518.839 688.5 518.844Z"/><path d="M688.5 507.469C685.808 507.469 683.625 509.651 683.625 512.344 683.625 515.036 685.808 517.219 688.5 517.219 691.192 517.219 693.375 515.036 693.375 512.344 693.372 509.653 691.191 507.472 688.5 507.469ZM688.5 516.406C686.256 516.406 684.438 514.587 684.438 512.344 684.438 510.1 686.256 508.281 688.5 508.281 690.744 508.281 692.562 510.1 692.562 512.344 692.56 514.586 690.743 516.404 688.5 516.406Z"/></g></svg>