<svg width="28" height="27" xmlns="http://www.w3.org/2000/svg" xmlns:xlink="http://www.w3.org/1999/xlink" xml:space="preserve" overflow="hidden"><g transform="translate(-534 -552)"><path d="M97.875 178.037 116.438 178.037C117.058 178.035 117.561 177.533 117.562 176.912L117.562 165.659C117.561 165.038 117.058 164.536 116.438 164.534L106.875 164.534 103.781 162.481C103.604 162.345 103.385 162.275 103.162 162.284L97.875 162.284C97.2546 162.286 96.752 162.788 96.75 163.409L96.75 176.912C96.7517 177.533 97.2543 178.035 97.875 178.037ZM97.3125 163.408C97.3125 163.097 97.5642 162.846 97.875 162.846L103.162 162.846C103.254 162.839 103.344 162.863 103.421 162.912L103.445 162.932 103.47 162.949 106.564 165.002 106.705 165.096 116.438 165.096C116.748 165.096 117 165.347 117 165.658L117 176.912C117 177.223 116.748 177.474 116.438 177.474L97.875 177.474C97.5642 177.474 97.3125 177.223 97.3125 176.912Z" stroke="#222222" stroke-width="0.666667" transform="matrix(1.03704 0 0 1 436.875 395.344)"/><path d="M110.625 172.688C110.625 172.532 110.751 172.406 110.906 172.406L113.977 172.406 113.145 171.574C113.039 171.46 113.045 171.282 113.159 171.176 113.267 171.076 113.435 171.076 113.543 171.176L114.855 172.489C114.965 172.599 114.965 172.776 114.855 172.886L113.543 174.199C113.429 174.305 113.251 174.298 113.145 174.185 113.044 174.077 113.044 173.909 113.145 173.801L113.977 172.969 110.906 172.969C110.751 172.969 110.625 172.843 110.625 172.688Z" stroke="#222222" stroke-width="0.666667" fill="#434343" transform="matrix(1.03704 0 0 1 436.875 395.344)"/><path d="M116.344 172.688C116.344 170.72 114.749 169.125 112.781 169.125 110.814 169.125 109.219 170.72 109.219 172.688 109.219 174.655 110.814 176.25 112.781 176.25 114.749 176.25 116.344 174.655 116.344 172.688ZM115.781 172.688C115.781 174.344 114.438 175.688 112.781 175.688 111.124 175.688 109.781 174.344 109.781 172.688 109.781 171.031 111.124 169.687 112.781 169.687 114.438 169.687 115.781 171.031 115.781 172.688Z" stroke="#222222" stroke-width="0.666667" fill="#434343" transform="matrix(1.03704 0 0 1 436.875 395.344)"/></g></svg>