<svg width="34" height="34" xmlns="http://www.w3.org/2000/svg" xmlns:xlink="http://www.w3.org/1999/xlink" xml:space="preserve" overflow="hidden"><g transform="translate(-948 -247)"><path d="M958.625 251.958 957.917 251.958 957.917 276.049 972.083 276.049 972.083 251.958 958.625 251.958ZM971.375 275.341 958.625 275.341 958.625 252.667 971.375 252.667Z"/><path d="M973.146 248.417 956.854 248.417C956.463 248.418 956.147 248.734 956.146 249.125L956.146 278.884C956.147 279.275 956.464 279.591 956.854 279.592L973.146 279.592C973.536 279.591 973.853 279.274 973.854 278.884L973.854 249.125C973.853 248.734 973.536 248.418 973.146 248.417ZM973.146 278.884 956.854 278.884 956.854 249.125 973.146 249.125Z"/><path d="M963.583 250.896 966.771 250.896C966.966 250.896 967.125 250.737 967.125 250.542 967.125 250.346 966.966 250.188 966.771 250.188L963.583 250.188C963.388 250.188 963.229 250.346 963.229 250.542 963.229 250.737 963.388 250.896 963.583 250.896Z"/></g></svg>