<svg width="34" height="34" xmlns="http://www.w3.org/2000/svg" xmlns:xlink="http://www.w3.org/1999/xlink" xml:space="preserve" overflow="hidden"><g transform="translate(-604 -466)"><path d="M625.599 472.729C627.164 472.729 628.433 471.461 628.433 469.896 628.433 468.331 627.164 467.062 625.599 467.062 624.034 467.062 622.766 468.331 622.766 469.896 622.768 471.46 624.035 472.727 625.599 472.729ZM625.599 467.771C626.773 467.771 627.724 468.722 627.724 469.896 627.724 471.069 626.773 472.021 625.599 472.021 624.426 472.021 623.474 471.069 623.474 469.896 623.475 468.723 624.426 467.772 625.599 467.771Z"/><path d="M625.245 486.188 625.245 498.229 622.766 498.229 622.766 478.396C622.766 478.2 622.607 478.042 622.412 478.042 622.216 478.042 622.058 478.2 622.058 478.396L622.058 498.938 629.141 498.938 629.141 478.396C629.141 478.2 628.982 478.042 628.787 478.042 628.591 478.042 628.433 478.2 628.433 478.396L628.433 498.229 625.953 498.229 625.953 486.188Z"/><path d="M620.499 475.638C620.399 475.758 620.31 475.888 620.235 476.025 620.186 476.116 620.144 476.21 620.111 476.308L619.477 477.982 618.57 480.113 614.648 480.07C614.222 480.066 613.818 480.257 613.55 480.588 613.071 481.185 613.167 482.057 613.764 482.535 614.005 482.728 614.304 482.835 614.612 482.84L620.047 482.902 620.064 482.902C620.351 482.902 620.629 482.808 620.857 482.634 621.012 482.515 621.042 482.293 620.923 482.138 620.804 481.982 620.582 481.953 620.426 482.071 620.32 482.152 620.19 482.194 620.056 482.194L614.621 482.131C614.247 482.126 613.949 481.819 613.954 481.445 613.959 481.072 614.266 480.773 614.64 480.778L618.563 480.821C618.849 480.824 619.11 480.654 619.222 480.39L620.135 478.246 620.778 476.546C620.799 476.483 620.825 476.422 620.857 476.364 620.906 476.273 620.964 476.186 621.03 476.105 621.73 475.36 622.605 474.8 623.576 474.476 624.213 474.253 624.884 474.141 625.559 474.144L625.64 474.144C626.317 474.142 626.989 474.255 627.629 474.478 628.591 474.799 629.459 475.352 630.156 476.09 630.227 476.175 630.289 476.267 630.342 476.364 630.425 476.527 630.478 476.704 630.499 476.886L631.61 484.761C631.681 485.532 631.371 485.758 631.13 485.859 630.948 485.932 630.86 486.138 630.933 486.319 630.988 486.456 631.121 486.545 631.269 486.542 631.316 486.542 631.363 486.532 631.407 486.513 631.88 486.312 632.422 485.834 632.313 484.68L631.2 476.788C631.168 476.522 631.088 476.263 630.963 476.025 630.884 475.882 630.791 475.747 630.686 475.622 629.907 474.793 628.936 474.17 627.857 473.809 627.143 473.56 626.392 473.434 625.636 473.438L625.563 473.438C624.808 473.436 624.059 473.561 623.346 473.808 622.26 474.172 621.281 474.801 620.499 475.638Z"/><path d="M609.376 485.833 608.656 485.833 610.969 498.938 616.985 498.938 619.298 485.833 618.578 485.833 616.391 498.229 611.563 498.229 609.376 485.833Z"/><path d="M613.162 489.397 614.626 489.397 614.626 490.861 613.162 490.861Z"/><path d="M613.232 487.21 614.267 486.175 615.302 487.21 614.267 488.245Z"/><path d="M612.141 484.744 613.177 483.708 614.212 484.744 613.177 485.779Z"/></g></svg>