<svg width="27" height="26" xmlns="http://www.w3.org/2000/svg" xmlns:xlink="http://www.w3.org/1999/xlink" xml:space="preserve" overflow="hidden"><g transform="translate(-534 -592)"><path d="M12.9943 2.70833C7.31353 2.70833 2.70833 7.31353 2.70833 12.9943 2.70833 18.6751 7.31353 23.2803 12.9943 23.2803 18.6751 23.2803 23.2803 18.6751 23.2803 12.9943 23.2828 7.31608 18.6818 2.71088 13.0035 2.70833 13.0005 2.70833 12.9974 2.70833 12.9943 2.70833ZM12.9943 22.7386C7.61266 22.7386 3.25 18.376 3.25 12.9943 3.25 7.61266 7.61266 3.25 12.9943 3.25 18.376 3.25 22.7386 7.61266 22.7386 12.9943 22.7325 18.3734 18.3734 22.7325 12.9943 22.7386Z" stroke="#222222" transform="matrix(1.03846 0 0 1 534 592)"/><path d="M13.2708 9.47917 11.1042 9.47917 11.1042 10.0208 12.7292 10.0208 12.7292 18.1458 10.8333 18.1458 10.8333 18.6875 15.1667 18.6875 15.1667 18.1458 13.2708 18.1458 13.2708 9.47917Z" stroke="#222222" transform="matrix(1.03846 0 0 1 534 592)"/><path d="M13.2882 7.17708C13.2882 7.51363 13.0153 7.78646 12.6788 7.78646 12.3422 7.78646 12.0694 7.51363 12.0694 7.17708 12.0694 6.84053 12.3422 6.56771 12.6788 6.56771 13.0153 6.56771 13.2882 6.84053 13.2882 7.17708Z" stroke="#222222" transform="matrix(1.03846 0 0 1 534 592)"/></g></svg>