<svg width="40" height="39" xmlns="http://www.w3.org/2000/svg" xmlns:xlink="http://www.w3.org/1999/xlink" xml:space="preserve" overflow="hidden"><g transform="translate(-850 -493)"><path d="M32.7535 15.3932C32.4302 13.4043 31.3353 11.6233 29.7066 10.437 28.018 9.25405 25.9189 8.81367 23.8973 9.21822 22.3032 6.77068 19.5836 5.29068 16.6628 5.28125 15.993 5.28113 15.3256 5.36047 14.6746 5.51769 11.2138 6.41794 8.62412 9.29634 8.09331 12.8326 5.80401 12.9128 3.67158 14.0163 2.28394 15.8389 0.661692 18.1198 0.367744 21.089 1.51125 23.6438 2.67596 26.1555 5.12566 27.8251 7.88938 27.9906L10.855 27.9906 15.8543 28.0028 15.8543 27.1903 10.8554 27.1781 7.91456 27.1781C5.46272 27.0219 3.29179 25.5395 2.25388 23.3127 1.23604 21.0242 1.49584 18.3692 2.938 16.3215 4.1821 14.7031 6.08189 13.7223 8.12175 13.6451L8.79653 13.6212 8.89647 12.9533C9.37085 9.74066 11.7216 7.12372 14.8651 6.30866 15.4537 6.16622 16.0572 6.09412 16.6628 6.09375 19.3105 6.09513 21.7774 7.43763 23.2164 9.66022L23.517 10.1205 24.0561 10.0124C25.8557 9.65246 27.7242 10.0426 29.2293 11.0927 30.6816 12.1564 31.6589 13.7473 31.9512 15.5236L32.0466 16.1082 32.6324 16.196C35.662 16.6225 37.7722 19.4242 37.3457 22.4538 36.9693 25.1271 34.7207 27.1397 32.0222 27.2188L27.716 27.2188 23.166 27.2078 23.166 28.0203 27.716 28.0312 32.0222 28.0312C35.529 27.9411 38.2988 25.0251 38.2086 21.5183 38.1289 18.4189 35.8231 15.8299 32.7535 15.3932Z" transform="matrix(1.02564 0 0 1 850 493)"/><path d="M19.9062 33.7188 19.9062 17.6467C19.9063 17.6445 19.9081 17.6427 19.9104 17.6427 19.9114 17.6427 19.9124 17.6431 19.9132 17.6438L25.3065 23.0372 25.881 22.4628 19.5 16.0818 13.119 22.4628 13.6935 23.0372 19.0868 17.6438C19.0884 17.6423 19.091 17.6423 19.0926 17.6439 19.0933 17.6447 19.0938 17.6456 19.0938 17.6467L19.0938 33.7188Z" transform="matrix(1.02564 0 0 1 850 493)"/></g></svg>