<svg width="40" height="39" xmlns="http://www.w3.org/2000/svg" xmlns:xlink="http://www.w3.org/1999/xlink" xml:space="preserve" overflow="hidden"><g transform="translate(-492 -493)"><path d="M4.44316 30.8726C4.45742 30.8775 4.47212 30.8812 4.48703 30.8835L29.6562 30.8835 35.1812 19.0178C35.5757 18.1945 35.2281 17.2072 34.4047 16.8128 34.2398 16.7338 34.0629 16.6826 33.8813 16.6615L32.0938 16.6615 32.0938 13.0053C32.0911 12.1089 31.3651 11.383 30.4688 11.3803L18.395 11.3803C18.3213 11.3802 18.2492 11.3584 18.1878 11.3177L13.8125 8.41181C13.5453 8.23903 13.2367 8.14088 12.9187 8.12744L5.28125 8.12744C4.3849 8.13012 3.65893 8.85609 3.65625 9.75244L3.65625 30.0625C3.65735 30.5005 4.00539 30.8587 4.44316 30.8726ZM33.8378 17.4732C34.2959 17.5546 34.6014 17.9919 34.5201 18.4501 34.5075 18.5207 34.486 18.5894 34.4561 18.6546L34.4508 18.6647 34.4463 18.6749 29.1407 30.0686 29.1371 30.071 5.32188 30.071C5.31964 30.071 5.31785 30.0692 5.31789 30.0669 5.31789 30.0664 5.31802 30.0658 5.31822 30.0653L10.3309 17.8827C10.4481 17.6358 10.6955 17.4769 10.9688 17.4732ZM4.46875 9.75244C4.46875 9.30369 4.83251 8.93994 5.28125 8.93994L12.9187 8.93994C13.0864 8.95387 13.2477 9.0105 13.3872 9.10447L17.7381 11.9925C17.9328 12.1217 18.1613 12.1907 18.395 12.1908L30.4688 12.1908C30.9175 12.1908 31.2812 12.5545 31.2812 13.0033L31.2812 16.6562 11.375 16.6562C11.3535 16.6562 11.3344 16.6599 11.3116 16.6607L10.9688 16.6607C10.3734 16.6636 9.83413 17.0126 9.5875 17.5545L4.47647 29.9752C4.47578 29.9773 4.47346 29.9784 4.47135 29.9778 4.47013 29.9773 4.46916 29.9764 4.46875 29.9752Z" transform="matrix(1.02564 0 0 1 492 493)"/></g></svg>