<svg width="27" height="27" xmlns="http://www.w3.org/2000/svg" xmlns:xlink="http://www.w3.org/1999/xlink" xml:space="preserve" overflow="hidden"><g transform="translate(-534 -633)"><path d="M537.968 644.812 554.843 644.812 554.843 645.375 537.968 645.375Z" stroke="#222222" stroke-width="0.692308"/><path d="M557.098 654.663 535.688 654.663 535.688 642.281 557.098 642.281 557.098 643.39C557.263 643.264 557.456 643.18 557.66 643.145L557.66 637.781 535.125 637.781 535.125 655.226 557.66 655.226 557.66 647.923 557.098 648.488ZM557.098 638.344 557.098 641.719 535.688 641.719 535.688 638.344Z" stroke="#222222" stroke-width="0.692308"/><path d="M553.407 647.062 546.687 647.062 546.687 647.625 552.845 647.625 553.407 647.062Z" stroke="#222222" stroke-width="0.692308"/><path d="M551.139 649.312 546.687 649.312 546.687 649.875 550.952 649.875 551.139 649.312Z" stroke="#222222" stroke-width="0.692308"/><path d="M546.687 652.125 550.206 652.125 550.393 651.562 546.687 651.562 546.687 652.125Z" stroke="#222222" stroke-width="0.692308"/><path d="M551.187 640.031C551.187 640.342 550.935 640.594 550.625 640.594 550.314 640.594 550.062 640.342 550.062 640.031 550.062 639.721 550.314 639.469 550.625 639.469 550.935 639.469 551.187 639.721 551.187 640.031Z" stroke="#222222" stroke-width="0.692308"/><path d="M553.156 640.031C553.156 640.342 552.904 640.594 552.593 640.594 552.283 640.594 552.031 640.342 552.031 640.031 552.031 639.721 552.283 639.469 552.593 639.469 552.904 639.469 553.156 639.721 553.156 640.031Z" stroke="#222222" stroke-width="0.692308"/><path d="M555.125 640.031C555.125 640.342 554.873 640.594 554.562 640.594 554.251 640.594 554 640.342 554 640.031 554 639.721 554.251 639.469 554.562 639.469 554.873 639.469 555.125 639.721 555.125 640.031Z" stroke="#222222" stroke-width="0.692308"/><path d="M537.968 652.125 545.562 652.125 545.562 647.062 537.968 647.062ZM540.412 650.061 541.062 650.494 541.712 650.061 542.636 651.562 539.488 651.562ZM540.707 649.582 541.062 649.005 541.417 649.582 541.062 649.818ZM542.759 650.689 543.103 650.13 543.984 651.562 543.296 651.562ZM538.531 647.625 545 647.625 545 651.562 544.644 651.562 543.102 649.057 542.428 650.152 541.062 647.932 538.828 651.562 538.531 651.562Z" stroke="#222222" stroke-width="0.692308"/><path d="M540.218 648.188C540.218 648.343 540.092 648.469 539.937 648.469 539.782 648.469 539.656 648.343 539.656 648.188 539.656 648.032 539.782 647.906 539.937 647.906 540.092 647.906 540.218 648.032 540.218 648.188Z" stroke="#222222" stroke-width="0.692308"/><path d="M559.171 644.702C559.158 644.687 559.144 644.673 559.133 644.663L558.372 643.901C558.241 643.766 558.061 643.689 557.872 643.688 557.68 643.69 557.497 643.765 557.359 643.899L551.62 649.649 550.745 652.286 553.394 651.412 558.368 646.414 559.107 645.675C559.393 645.424 559.422 644.989 559.171 644.702ZM552.985 650.955 551.898 651.314 551.72 651.135 552.082 650.044C552.342 649.812 552.738 649.826 552.982 650.074 553.225 650.316 553.227 650.71 552.985 650.955ZM553.709 650.299C553.666 650.061 553.55 649.843 553.377 649.674 553.2 649.497 552.974 649.379 552.728 649.336L556.828 645.227 557.797 646.195ZM558.723 645.264 558.193 645.796 557.226 644.829 557.761 644.292C557.789 644.265 557.826 644.25 557.864 644.25 557.905 644.249 557.945 644.266 557.972 644.296L558.749 645.074C558.795 645.131 558.786 645.214 558.729 645.26 558.727 645.261 558.725 645.263 558.723 645.264Z" stroke="#222222" stroke-width="0.692308"/></g></svg>