<svg width="34" height="34" xmlns="http://www.w3.org/2000/svg" xmlns:xlink="http://www.w3.org/1999/xlink" xml:space="preserve" overflow="hidden"><g transform="translate(-318 -247)"><path d="M320.326 265.402 322.624 267.7 324.375 266.041 324.375 277.45 333.229 277.453 333.229 268.61 336.771 268.61 336.771 277.455 345.625 277.458 345.625 266.027 347.385 267.691 349.674 265.402 335 251.462ZM344.917 276.75 337.479 276.747 337.479 267.902 332.521 267.902 332.521 276.745 325.083 276.742 325.083 265.371 335 255.98 344.917 265.357ZM322.637 266.711 321.341 265.417 335 252.439 348.659 265.417 347.371 266.703 335 255.004Z"/></g></svg>