<svg width="34" height="34" xmlns="http://www.w3.org/2000/svg" xmlns:xlink="http://www.w3.org/1999/xlink" xml:space="preserve" overflow="hidden"><g transform="translate(-819 -247)"><path d="M825.375 271.083 846.271 271.083C846.483 271.083 846.625 270.942 846.625 270.729 846.625 270.658 846.625 270.623 846.59 270.552L841.631 262.052C841.56 261.946 841.454 261.875 841.312 261.875L841.312 261.875C841.171 261.875 841.065 261.946 840.994 262.052L838.763 266.196 833.45 258.121C833.415 258.05 833.273 257.979 833.167 257.979L833.167 257.979C833.06 257.979 832.919 258.05 832.883 258.156L828.669 264.815C828.633 264.85 828.598 264.921 828.562 264.956L825.056 270.552C824.95 270.729 824.985 270.942 825.162 271.048 825.233 271.048 825.304 271.083 825.375 271.083ZM841.312 262.973 845.669 270.375 841.49 270.375 839.188 266.869 841.312 262.973C841.312 262.973 841.312 262.973 841.312 262.973 841.312 262.973 841.312 262.973 841.312 262.973ZM836.744 264.425 834.583 263.15C834.442 263.079 834.265 263.079 834.158 263.221L833.167 264.212 832.352 263.398C832.246 263.292 832.104 263.256 831.963 263.327L829.873 264.248 833.167 259.006C833.167 259.006 833.167 259.006 833.167 259.006L836.744 264.425ZM829.2 265.346 832.033 264.071 832.919 264.956C833.06 265.098 833.273 265.098 833.415 264.956L834.477 263.894 837.594 265.7C837.594 265.7 837.594 265.7 837.594 265.7L840.64 270.375 826.013 270.375 829.2 265.346Z"/><path d="M828.562 259.396C829.165 259.396 829.625 258.935 829.625 258.333 829.625 257.731 829.165 257.271 828.562 257.271 827.96 257.271 827.5 257.731 827.5 258.333 827.5 258.935 827.96 259.396 828.562 259.396ZM828.562 257.979C828.775 257.979 828.917 258.121 828.917 258.333 828.917 258.546 828.775 258.688 828.562 258.688 828.35 258.688 828.208 258.546 828.208 258.333 828.208 258.121 828.35 257.979 828.562 257.979Z"/><path d="M849.458 254.083 822.542 254.083 822.542 274.625 849.458 274.625 849.458 254.083ZM848.75 273.917 823.25 273.917 823.25 254.792 848.75 254.792 848.75 273.917Z"/></g></svg>